<?xml version="1.0" encoding="UTF-8" standalone="no"?>
<!DOCTYPE svg PUBLIC "-//W3C//DTD SVG 1.1//EN" "http://www.w3.org/Graphics/SVG/1.1/DTD/svg11.dtd">
<svg width="100%" height="100%" viewBox="0 0 6000 6000" version="1.1" xmlns="http://www.w3.org/2000/svg" xmlns:xlink="http://www.w3.org/1999/xlink" xml:space="preserve" xmlns:serif="http://www.serif.com/" style="fill-rule:evenodd;clip-rule:evenodd;stroke-linejoin:round;stroke-miterlimit:2;">
    <g transform="matrix(6.44943,0,0,6.24406,3000,3000)">
        <g id="undraw_social_friends_nsbv" transform="matrix(1,0,0,1,-440.695,-348.754)">
            <clipPath id="_clip1">
                <rect x="0" y="0" width="881.389" height="697.508"/>
            </clipPath>
            <g clip-path="url(#_clip1)">
                <path d="M277.171,365.785L286.074,393.129L298.156,382.954L291.797,361.334L277.171,365.785Z" style="fill:rgb(255,185,185);fill-rule:nonzero;"/>
                <g transform="matrix(1,0,0,1,-159.305,-101.246)">
                    <path d="M322.014,350.661L325.194,393.266L402.138,395.174L435.84,472.118L454.281,464.487C454.281,464.487 433.297,391.995 423.758,369.102C414.22,346.21 377.973,362.743 377.973,362.743L374.794,356.384L322.014,350.661Z" style="fill:rgb(47,46,65);fill-rule:nonzero;"/>
                </g>
                <g transform="matrix(1,0,0,1,-159.305,-101.246)">
                    <path d="M441.563,489.287C441.563,489.287 442.835,509.636 444.743,510.908C446.651,512.18 461.276,509.636 461.276,509.636C461.276,509.636 465.671,510.613 483.533,505.821C503.614,500.434 480.989,492.467 480.989,492.467C480.989,492.467 466.364,482.928 460.005,478.477C453.646,474.026 449.194,483.564 449.194,483.564C450.466,487.38 441.563,489.287 441.563,489.287Z" style="fill:rgb(47,46,65);fill-rule:nonzero;"/>
                </g>
                <g transform="matrix(1,0,0,1,-159.305,-101.246)">
                    <path d="M950.333,571.681L952.357,642.532L973.95,725.529C973.95,725.529 969.227,739.699 972.6,743.073C975.974,746.447 991.494,752.52 991.494,752.52L978.674,575.729L950.333,571.681Z" style="fill:rgb(47,46,65);fill-rule:nonzero;"/>
                </g>
                <g transform="matrix(1,0,0,1,-159.305,-101.246)">
                    <path d="M997.213,742.727C997.213,742.727 1004.91,759.668 994.133,761.208C983.352,762.748 933.557,766.855 936.637,758.128C939.717,749.401 977.192,741.187 977.192,741.187L997.213,742.727Z" style="fill:rgb(47,46,65);fill-rule:nonzero;"/>
                </g>
                <g transform="matrix(1,0,0,1,-159.305,-101.246)">
                    <path d="M1025.91,508.927C1025.91,508.927 1017.81,552.787 1012.41,560.21C1007.01,567.632 1015.11,621.614 1015.11,621.614C1015.11,621.614 1027.26,699.213 1021.86,711.359C1016.46,723.505 1017.81,719.456 1018.49,726.204C1019.16,732.951 1020.51,738.35 1018.49,744.423C1016.46,750.496 1016.46,749.821 1015.79,753.195C1015.11,756.568 1015.79,774.787 1015.79,774.787C1015.79,774.787 986.771,784.909 982.047,770.064C982.047,770.064 988.795,760.617 986.771,753.195C984.66,745.725 983.526,738.013 983.397,730.252L983.397,716.082L952.357,600.021L944.935,558.185C944.935,558.185 946.959,515.674 954.382,511.626C961.804,507.577 1025.91,508.927 1025.91,508.927Z" style="fill:rgb(47,46,65);fill-rule:nonzero;"/>
                </g>
                <g transform="matrix(1,0,0,1,-159.305,-101.246)">
                    <path d="M1013.76,771.414C1013.76,771.414 1023.88,793.681 1009.71,795.705C995.543,797.73 930.09,803.128 934.139,791.657C938.187,780.186 987.446,769.389 987.446,769.389L1013.76,771.414Z" style="fill:rgb(47,46,65);fill-rule:nonzero;"/>
                </g>
                <circle cx="841.629" cy="186.383" r="26.991" style="fill:rgb(255,185,185);"/>
                <g transform="matrix(1,0,0,1,-159.305,-101.246)">
                    <path d="M1019.9,299.557L1019.4,334.026L986.307,334.138C986.307,334.138 994.705,307.155 990.943,301.512C987.182,295.87 1019.9,299.557 1019.9,299.557Z" style="fill:rgb(255,185,185);fill-rule:nonzero;"/>
                </g>
                <g transform="matrix(1,0,0,1,-159.305,-101.246)">
                    <path d="M970.576,353.054C970.576,353.054 994.193,322.689 1012.41,335.51C1030.63,348.331 1037.38,378.696 1037.38,378.696L1033.33,463.717C1033.33,463.717 1023.21,475.863 1029.28,483.96C1035.35,492.057 1038.73,490.033 1034.01,496.106C1029.28,502.179 1023.88,506.902 1025.91,508.927C1027.93,510.951 1023.88,512.301 1023.88,512.301L952.357,514.325C952.357,514.325 954.382,511.626 948.309,503.529C942.236,495.431 949.658,484.635 948.309,480.586C946.959,476.538 945.61,481.261 944.935,471.814C944.26,462.367 970.576,353.054 970.576,353.054Z" style="fill:rgb(63,61,86);fill-rule:nonzero;"/>
                </g>
                <g transform="matrix(1,0,0,1,-159.305,-101.246)">
                    <path d="M977.324,527.146C977.324,527.146 975.974,544.015 965.853,546.714C962.057,547.726 959.211,545.797 957.135,542.99C953.178,537.497 952.967,530.107 956.605,524.398L959.105,520.398L977.324,527.146Z" style="fill:rgb(255,185,185);fill-rule:nonzero;"/>
                </g>
                <g transform="matrix(1,0,0,1,-159.305,-101.246)">
                    <path d="M1039.74,318.978C1039.74,318.978 1040.41,332.474 1039.74,334.498C1039.07,336.522 1038.39,338.547 1039.74,340.571C1041.09,342.595 1040.41,349.343 1039.07,350.018C1037.72,350.693 1041.77,356.765 1040.41,360.814C1039.07,364.863 1037.72,366.212 1037.04,367.562C1036.37,368.911 1035.28,371.329 1035.28,371.329C1035.28,371.329 1015.45,329.1 999.254,339.221C983.06,349.343 970.239,352.717 970.239,352.717C970.239,352.717 979.011,305.483 1039.74,318.978Z" style="fill:rgb(63,61,86);fill-rule:nonzero;"/>
                </g>
                <g transform="matrix(1,0,0,1,-159.305,-101.246)">
                    <path d="M1010.39,350.355C1010.39,350.355 1031.98,352.379 1030.63,380.72C1029.28,409.06 1032.65,453.595 1032.65,453.595C1032.65,453.595 995.543,510.276 989.47,514.325C983.397,518.373 982.722,517.699 983.397,521.073C984.072,524.447 984.746,527.146 982.047,529.845C980.454,531.449 978.635,532.813 976.649,533.893C974.663,534.974 955.056,526.471 957.081,519.723C959.105,512.975 968.552,502.179 968.552,502.179C968.552,502.179 984.746,475.863 985.421,471.814C986.096,467.766 986.096,468.44 988.12,466.416C990.144,464.392 995.543,456.294 995.543,452.246L995.543,439.425L989.886,370.911C989.366,365.27 991.285,359.668 995.153,355.529C998.365,352.169 1003.22,349.495 1010.39,350.355Z" style="fill:rgb(63,61,86);fill-rule:nonzero;"/>
                </g>
                <g transform="matrix(1,0,0,1,-159.305,-101.246)">
                    <path d="M983.527,266.814C979.958,267.803 976.12,266.925 973.336,264.481C970.699,261.975 969.812,257.632 971.689,254.515C973.309,251.823 976.461,250.507 979.461,249.571C986.077,247.509 992.967,246.458 999.897,246.454C1003.2,246.453 1006.65,246.735 1009.48,248.444C1010.88,249.29 1012.06,250.452 1013.44,251.323C1015.99,252.926 1019.04,253.458 1021.83,254.571C1027.61,256.918 1032.09,261.661 1034.1,267.559C1034.74,269.537 1035.14,271.586 1035.29,273.659C1035.75,279.34 1034.74,285.044 1032.37,290.227C1028.61,298.437 1021.44,305.34 1020.43,314.315C1016.57,311.077 1015.44,305.645 1012.45,301.59C1010.23,298.593 1007.05,296.437 1003.45,295.477C1002.44,295.344 1001.49,294.92 1000.72,294.258C1000.2,293.54 999.903,292.685 999.866,291.8L998.014,278.466C997.637,275.752 997.128,272.786 995.045,271.006C993.739,270.034 992.226,269.377 990.624,269.087C986.834,268.145 982.974,267.516 979.081,267.205" style="fill:rgb(47,46,65);fill-rule:nonzero;"/>
                </g>
                <g transform="matrix(1,0,0,1,-159.305,-101.246)">
                    <path d="M1029.37,463.234L991.494,512.391C991.494,512.391 1026.37,483.234 1029.37,463.234Z" style="fill-opacity:0.1;fill-rule:nonzero;"/>
                </g>
                <path d="M833.709,307.563L834.068,353.988L812.068,386.988L830.068,349.988L833.709,307.563Z" style="fill-opacity:0.1;fill-rule:nonzero;"/>
                <g transform="matrix(1,0,0,1,-159.305,-101.246)">
                    <path d="M762.312,386.779L532.88,386.779L532.88,382.05L428.847,382.05L428.847,386.779L198.469,386.779C189.955,386.779 182.949,393.784 182.949,402.298L182.949,716.461C182.949,724.975 189.955,731.981 198.469,731.981L762.312,731.981C770.826,731.981 777.832,724.975 777.832,716.461L777.832,402.298C777.832,393.785 770.826,386.779 762.312,386.779Z" style="fill:rgb(63,61,86);fill-rule:nonzero;"/>
                </g>
                <rect x="44.451" y="312.96" width="553.269" height="312.1" style="fill-opacity:0.1;"/>
                <circle cx="320.612" cy="298.774" r="5.675" style="fill:rgb(38,87,135);"/>
                <rect x="45.38" y="312.804" width="549.775" height="311.985" style="fill:rgb(230,230,230);"/>
                <rect x="61.1" y="334.122" width="518.334" height="271.005" style="fill:white;"/>
                <rect x="108.198" y="362.241" width="133.187" height="214.767" style="fill:rgb(230,230,230);"/>
                <rect x="264.376" y="362.241" width="110.989" height="59.117" style="fill:rgb(38,87,135);"/>
                <rect x="264.376" y="437.821" width="110.989" height="63.607" style="fill:rgb(230,230,230);"/>
                <rect x="264.376" y="517.891" width="110.989" height="59.117" style="fill:rgb(230,230,230);"/>
                <rect x="399.149" y="362.241" width="133.187" height="93.594" style="fill:rgb(230,230,230);"/>
                <rect x="399.149" y="483.414" width="133.187" height="93.594" style="fill:rgb(38,87,135);"/>
                <g transform="matrix(1,0,0,1,-159.305,-101.246)">
                    <path d="M793.366,720.632L739.371,720.632L739.371,716.741C739.371,716.318 739.023,715.97 738.599,715.97L720.087,715.97C719.664,715.97 719.315,716.318 719.315,716.741L719.315,720.632L707.745,720.632L707.745,716.741C707.745,716.318 707.397,715.97 706.974,715.97L688.461,715.97C688.038,715.97 687.689,716.318 687.689,716.741L687.689,720.632L676.119,720.632L676.119,716.741C676.119,716.318 675.771,715.97 675.348,715.97L656.835,715.97C656.412,715.97 656.064,716.318 656.064,716.741L656.064,720.632L644.493,720.632L644.493,716.741C644.493,716.318 644.145,715.97 643.722,715.97L625.209,715.97C624.786,715.97 624.438,716.318 624.438,716.741L624.438,720.632L612.867,720.632L612.867,716.741C612.867,716.318 612.519,715.97 612.096,715.97L593.583,715.97C593.16,715.97 592.812,716.318 592.812,716.741L592.812,720.632L581.241,720.632L581.241,716.741C581.241,716.318 580.893,715.97 580.47,715.97L561.957,715.97C561.534,715.97 561.186,716.318 561.186,716.741L561.186,720.632L549.615,720.632L549.615,716.741C549.615,716.318 549.267,715.97 548.844,715.97L403.828,715.97C403.404,715.97 403.056,716.318 403.056,716.741L403.056,720.632L391.486,720.632L391.486,716.741C391.486,716.318 391.138,715.97 390.714,715.97L372.202,715.97C371.779,715.97 371.43,716.318 371.43,716.741L371.43,720.632L359.86,720.632L359.86,716.741C359.86,716.318 359.512,715.97 359.089,715.97L340.576,715.97C340.153,715.97 339.804,716.318 339.804,716.741L339.804,720.632L328.234,720.632L328.234,716.741C328.234,716.318 327.886,715.97 327.463,715.97L308.95,715.97C308.527,715.97 308.178,716.318 308.178,716.741L308.178,720.632L296.608,720.632L296.608,716.741C296.608,716.318 296.26,715.97 295.837,715.97L277.324,715.97C276.901,715.97 276.553,716.318 276.553,716.741L276.553,720.632L264.982,720.632L264.982,716.741C264.982,716.318 264.634,715.97 264.211,715.97L245.698,715.97C245.275,715.97 244.927,716.318 244.927,716.741L244.927,720.632L233.356,720.632L233.356,716.741C233.356,716.318 233.008,715.97 232.585,715.97L214.072,715.97C213.649,715.97 213.301,716.318 213.301,716.741L213.301,720.632L177.818,720.632C167.662,720.632 159.305,728.989 159.305,739.145L159.305,747.516C159.305,757.671 167.662,766.028 177.818,766.028L793.366,766.028C803.522,766.028 811.879,757.671 811.879,747.516L811.879,739.145C811.879,728.989 803.522,720.632 793.366,720.632Z" style="fill:rgb(63,61,86);fill-rule:nonzero;"/>
                </g>
                <g transform="matrix(1,0,0,1,-159.305,-101.246)">
                    <path d="M297.648,179.8C294.279,184.302 292.238,189.659 291.759,195.262C291.073,202.083 289.076,212.992 283.265,218.726C274.411,227.463 271.46,234.015 271.46,234.015L274.411,237.291C274.411,230.739 278.346,229.647 278.346,229.647L277.362,237.291C303.924,262.408 362.949,239.475 362.949,239.475L360.981,219.818C365.9,222.002 367.868,237.291 367.868,237.291L375.738,235.107C375.738,235.107 361.965,211.082 353.111,189.241C344.258,167.4 330.485,172.86 330.485,172.86C314.253,164.185 303.532,172.23 297.648,179.8Z" style="fill:rgb(47,46,65);fill-rule:nonzero;"/>
                </g>
                <g transform="matrix(1,0,0,1,-159.305,-101.246)">
                    <path d="M390.055,191.05L399.594,128.732C399.594,128.732 389.42,103.932 406.589,101.388C423.758,98.844 412.312,131.275 412.312,131.275L406.589,191.05L390.055,191.05Z" style="fill:rgb(255,185,185);fill-rule:nonzero;"/>
                </g>
                <g transform="matrix(1,0,0,1,-159.305,-101.246)">
                    <path d="M382.425,484.2C385.604,489.287 386.24,515.359 386.24,515.359L408.497,501.37L402.138,478.477L382.425,484.2Z" style="fill:rgb(255,185,185);fill-rule:nonzero;"/>
                </g>
                <g transform="matrix(1,0,0,1,-159.305,-101.246)">
                    <path d="M351.265,347.482C351.265,347.482 323.286,347.482 308.024,356.384C303.119,359.246 301.695,364.407 302.022,370.093C302.876,384.949 315.009,396.681 329.861,397.6L372.886,400.261C366.527,418.067 381.153,487.38 381.153,487.38L404.045,484.2C404.045,484.2 400.866,460.672 401.502,459.4C402.138,458.128 407.861,408.528 404.045,382.456C400.23,356.384 348.086,367.195 348.086,367.195L351.265,347.482Z" style="fill:rgb(47,46,65);fill-rule:nonzero;"/>
                </g>
                <g transform="matrix(1,0,0,1,-159.305,-101.246)">
                    <path d="M384.968,509.636C384.968,509.636 383.061,528.077 383.696,530.621C384.332,533.165 410.404,534.436 433.933,527.442C457.461,520.447 430.753,512.816 430.753,512.816C430.753,512.816 414.856,502.005 410.404,498.19C405.953,494.375 399.594,503.277 399.594,503.277C398.322,509 384.968,509.636 384.968,509.636Z" style="fill:rgb(47,46,65);fill-rule:nonzero;"/>
                </g>
                <g transform="matrix(0.16018,-0.98709,0.98709,0.16018,-97.7286,396.47)">
                    <circle cx="323.286" cy="212.671" r="22.892" style="fill:rgb(255,185,185);"/>
                </g>
                <g transform="matrix(1,0,0,1,-159.305,-101.246)">
                    <path d="M313.747,229.84C322.014,241.922 311.84,248.917 311.84,248.917L307.388,281.984C307.388,281.984 355.081,286.435 363.348,280.076C371.614,273.717 353.809,252.732 347.45,250.825C341.091,248.917 339.819,222.845 339.819,222.845L313.747,229.84Z" style="fill:rgb(255,185,185);fill-rule:nonzero;"/>
                </g>
                <g transform="matrix(1,0,0,1,-159.305,-101.246)">
                    <path d="M314.992,245.529L289.901,241.604L287.04,268.63C287.04,268.63 288.311,329.04 287.04,339.851C285.768,350.661 308.66,362.743 308.66,362.743C308.66,362.743 341.727,360.2 348.086,357.02C354.445,353.841 374.794,360.2 374.794,360.2C377.061,360.326 379.33,360.001 381.471,359.246C385.286,357.974 371.614,267.358 371.614,267.358L359.532,239.379L344.906,245.102L340.455,266.086L314.992,245.529Z" style="fill:rgb(38,87,135);fill-rule:nonzero;"/>
                </g>
                <path d="M209.766,165.476L235.202,133.045L253.007,89.168L228.207,79.63L218.032,115.876L200.227,137.497L199.591,141.312L209.766,165.476Z" style="fill:rgb(38,87,135);fill-rule:nonzero;"/>
                <g transform="matrix(1,0,0,1,-159.305,-101.246)">
                    <path d="M288.92,316.089L351.919,318.461C351.919,318.461 375.398,305.525 379.882,322.292C384.367,339.06 350.842,331.386 350.842,331.386L290.805,332.515L288.92,316.089Z" style="fill:rgb(255,185,185);fill-rule:nonzero;"/>
                </g>
                <g transform="matrix(1,0,0,1,-159.305,-101.246)">
                    <path d="M294.352,311.553L323.604,313.461L327.419,333.174C327.419,333.174 291.809,332.538 277.819,331.902C263.829,331.266 277.819,272.127 279.727,254.322C281.634,236.517 291.173,241.604 291.173,241.604L296.896,246.055L294.352,311.553Z" style="fill:rgb(38,87,135);fill-rule:nonzero;"/>
                </g>
                <path d="M140.135,203.948L165.571,214.123L137.591,208.399L135.683,172.153L140.135,203.948Z" style="fill-opacity:0.15;fill-rule:nonzero;"/>
                <path d="M188.155,103.804L146.155,104.804L141.155,83.804L188.155,83.804L188.155,103.804Z" style="fill:rgb(47,46,65);fill-rule:nonzero;"/>
            </g>
        </g>
        <g id="undraw_social_friends_nsbv1" serif:id="undraw_social_friends_nsbv">
        </g>
    </g>
</svg>
