<?xml version="1.0" encoding="UTF-8" standalone="no"?>
<!DOCTYPE svg PUBLIC "-//W3C//DTD SVG 1.1//EN" "http://www.w3.org/Graphics/SVG/1.1/DTD/svg11.dtd">
<svg width="100%" height="100%" viewBox="0 0 6000 6000" version="1.1" xmlns="http://www.w3.org/2000/svg" xmlns:xlink="http://www.w3.org/1999/xlink" xml:space="preserve" xmlns:serif="http://www.serif.com/" style="fill-rule:evenodd;clip-rule:evenodd;stroke-linejoin:round;stroke-miterlimit:2;">
    <g transform="matrix(7.69557,0,0,7.69557,-1533.82,-336.309)">
        <path d="M283.983,439.629C282.398,439.631 281.093,440.935 281.091,442.521L281.091,741.569C281.093,743.155 282.397,744.459 283.983,744.461L658.929,744.461C660.515,744.459 661.819,743.155 661.821,741.569L661.821,490.525C661.819,488.939 660.515,487.634 658.929,487.632L443.735,487.632C441.551,487.634 439.443,486.82 437.828,485.35L389.449,441.392C388.202,440.257 386.574,439.628 384.887,439.629L283.983,439.629Z" style="fill:rgb(63,61,86);fill-rule:nonzero;"/>
    </g>
    <g transform="matrix(7.69557,0,0,7.69557,-1533.82,-336.309)">
        <path d="M457.147,400.985C456.178,400.417 454.914,400.745 454.344,401.713L343.308,590.662C342.74,591.631 343.068,592.895 344.036,593.465L496.254,682.917C497.223,683.485 498.488,683.156 499.058,682.189L610.094,493.24C610.662,492.271 610.334,491.006 609.366,490.436L457.147,400.985Z" style="fill:rgb(230,230,230);fill-rule:nonzero;"/>
    </g>
    <g transform="matrix(7.69557,0,0,7.69557,-1533.82,-336.309)">
        <path d="M459.477,409.956C458.508,409.388 457.244,409.717 456.674,410.684L352.279,588.332C351.711,589.301 352.04,590.565 353.007,591.135L493.924,673.945C494.893,674.513 496.158,674.185 496.728,673.217L601.123,495.57C601.691,494.601 601.362,493.336 600.395,492.766L459.477,409.956Z" style="fill:white;fill-rule:nonzero;"/>
    </g>
    <g transform="matrix(7.69557,0,0,7.69557,-1533.82,-336.309)">
        <path d="M432.852,497.712L536.686,558.73C537.158,559.007 537.695,559.154 538.243,559.154C539.928,559.154 541.315,557.767 541.315,556.081C541.315,554.993 540.737,553.984 539.799,553.432L435.965,492.414C435.493,492.136 434.954,491.988 434.405,491.988C432.719,491.988 431.332,493.375 431.332,495.061C431.332,496.15 431.912,497.161 432.852,497.712L432.852,497.712Z" style="fill:rgb(230,230,230);fill-rule:nonzero;"/>
    </g>
    <g transform="matrix(7.69557,0,0,7.69557,-1533.82,-336.309)">
        <path d="M460.965,447.832L529.852,488.313C530.822,488.883 532.306,488.16 533.165,486.697C534.025,485.234 533.935,483.586 532.965,483.015L464.078,442.534C463.108,441.964 461.624,442.687 460.764,444.15C459.905,445.613 459.994,447.261 460.965,447.832Z" style="fill:rgb(230,230,230);fill-rule:nonzero;"/>
    </g>
    <g transform="matrix(7.69557,0,0,7.69557,-1533.82,-336.309)">
        <path d="M452.041,463.018L520.927,503.5C521.898,504.07 523.381,503.346 524.241,501.883C525.101,500.421 525.011,498.772 524.04,498.202L455.154,457.721C454.183,457.15 452.7,457.874 451.84,459.337C450.98,460.8 451.07,462.448 452.041,463.018Z" style="fill:rgb(230,230,230);fill-rule:nonzero;"/>
    </g>
    <g transform="matrix(7.69557,0,0,7.69557,-1533.82,-336.309)">
        <path d="M422.786,514.841L526.62,575.859C527.091,576.135 527.628,576.281 528.174,576.281C529.86,576.281 531.247,574.894 531.247,573.209C531.247,572.122 530.67,571.113 529.733,570.561L425.9,509.543C425.428,509.267 424.892,509.121 424.345,509.121C422.66,509.121 421.273,510.508 421.273,512.194C421.273,513.28 421.85,514.289 422.786,514.841L422.786,514.841Z" style="fill:rgb(230,230,230);fill-rule:nonzero;"/>
    </g>
    <g transform="matrix(7.69557,0,0,7.69557,-1533.82,-336.309)">
        <path d="M412.72,531.97L516.554,592.988C517.025,593.264 517.562,593.41 518.108,593.41C519.794,593.41 521.181,592.023 521.181,590.338C521.181,589.251 520.604,588.242 519.667,587.69L415.834,526.672C415.362,526.395 414.824,526.249 414.277,526.249C412.592,526.249 411.205,527.636 411.205,529.321C411.205,530.409 411.783,531.419 412.72,531.97L412.72,531.97Z" style="fill:rgb(230,230,230);fill-rule:nonzero;"/>
    </g>
    <g transform="matrix(7.69557,0,0,7.69557,-1533.82,-336.309)">
        <path d="M402.655,549.099L506.488,610.117C506.959,610.393 507.495,610.538 508.041,610.538C509.726,610.538 511.113,609.151 511.113,607.466C511.113,606.38 510.537,605.371 509.601,604.819L405.768,543.801C405.296,543.524 404.758,543.378 404.211,543.378C402.526,543.378 401.139,544.765 401.139,546.45C401.139,547.538 401.717,548.548 402.655,549.099L402.655,549.099Z" style="fill:rgb(230,230,230);fill-rule:nonzero;"/>
    </g>
    <g transform="matrix(7.69557,0,0,7.69557,-1533.82,-336.309)">
        <path d="M392.589,566.228L496.422,627.246C496.894,627.523 497.432,627.67 497.979,627.67C499.664,627.67 501.051,626.283 501.051,624.597C501.051,623.509 500.473,622.5 499.535,621.949L395.702,560.93C395.23,560.653 394.693,560.507 394.145,560.507C392.46,560.507 391.073,561.894 391.073,563.579C391.073,564.667 391.651,565.677 392.589,566.228Z" style="fill:rgb(230,230,230);fill-rule:nonzero;"/>
    </g>
    <g transform="matrix(7.69557,0,0,7.69557,-1533.82,-336.309)">
        <path d="M382.523,583.357L486.356,644.375C486.828,644.652 487.366,644.799 487.913,644.799C489.598,644.799 490.985,643.412 490.985,641.726C490.985,640.638 490.407,639.629 489.47,639.078L385.636,578.059C385.164,577.782 384.627,577.636 384.079,577.636C382.394,577.636 381.007,579.023 381.007,580.708C381.007,581.796 381.585,582.806 382.523,583.357Z" style="fill:rgb(230,230,230);fill-rule:nonzero;"/>
    </g>
    <g transform="matrix(7.69557,0,0,7.69557,167.036,836.902)">
        <circle cx="330.361" cy="355.401" r="16.181" style="fill:rgb(230,230,230);"/>
    </g>
    <g transform="matrix(7.69557,0,0,7.69557,-1533.82,-336.309)">
        <path d="M327.962,455.4C326.863,455.168 325.767,455.879 325.532,456.977L279.939,671.342C279.706,672.44 280.418,673.536 281.516,673.771L454.209,710.501C455.308,710.734 456.404,710.022 456.639,708.924L502.232,494.56C502.464,493.461 501.753,492.365 500.655,492.13L327.962,455.4Z" style="fill:rgb(230,230,230);fill-rule:nonzero;"/>
    </g>
    <g transform="matrix(7.69557,0,0,7.69557,-1533.82,-336.309)">
        <path d="M333.009,463.174C331.91,462.942 330.814,463.653 330.579,464.752L287.713,666.294C287.481,667.393 288.192,668.489 289.29,668.724L449.162,702.727C450.261,702.959 451.357,702.248 451.592,701.15L494.458,499.607C494.69,498.508 493.979,497.413 492.88,497.178L333.009,463.174Z" style="fill:white;fill-rule:nonzero;"/>
    </g>
    <g transform="matrix(7.69557,0,0,7.69557,-1533.82,-336.309)">
        <path d="M453.298,579.902L335.498,554.847C334.082,554.548 333.06,553.288 333.06,551.841C333.06,550.155 334.447,548.768 336.132,548.768C336.349,548.768 336.565,548.791 336.777,548.837L454.577,573.892C455.993,574.19 457.015,575.451 457.015,576.898C457.015,578.583 455.628,579.97 453.943,579.97C453.726,579.97 453.51,579.947 453.298,579.902Z" style="fill:rgb(230,230,230);fill-rule:nonzero;"/>
    </g>
    <g transform="matrix(7.69557,0,0,7.69557,-1533.82,-336.309)">
        <path d="M466.22,524.122L388.067,507.499C386.966,507.265 386.36,505.73 386.713,504.07C387.066,502.411 388.245,501.255 389.346,501.489L467.498,518.112C468.599,518.346 469.205,519.881 468.852,521.541C468.499,523.2 467.321,524.356 466.22,524.122Z" style="fill:rgb(230,230,230);fill-rule:nonzero;"/>
    </g>
    <g transform="matrix(7.69557,0,0,7.69557,-1533.82,-336.309)">
        <path d="M462.555,541.351L384.403,524.729C383.302,524.495 382.695,522.959 383.048,521.3C383.401,519.64 384.58,518.484 385.681,518.719L463.833,535.341C464.935,535.575 465.541,537.11 465.188,538.77C464.835,540.43 463.656,541.585 462.555,541.351Z" style="fill:rgb(230,230,230);fill-rule:nonzero;"/>
    </g>
    <g transform="matrix(7.69557,0,0,7.69557,-1533.82,-336.309)">
        <path d="M449.165,599.335L331.365,574.28C329.954,573.977 328.937,572.719 328.937,571.276C328.937,569.59 330.324,568.203 332.01,568.203C332.223,568.203 332.435,568.226 332.643,568.27L450.444,593.325C451.857,593.625 452.877,594.885 452.877,596.33C452.877,598.015 451.49,599.402 449.805,599.402C449.59,599.402 449.375,599.38 449.165,599.335L449.165,599.335Z" style="fill:rgb(230,230,230);fill-rule:nonzero;"/>
    </g>
    <g transform="matrix(7.69557,0,0,7.69557,-1533.82,-336.309)">
        <path d="M445.032,618.768L327.232,593.713C325.821,593.41 324.804,592.152 324.804,590.709C324.804,589.023 326.191,587.637 327.876,587.637C328.089,587.637 328.302,587.659 328.51,587.703L446.31,612.758C447.724,613.058 448.743,614.318 448.743,615.763C448.743,617.448 447.357,618.835 445.671,618.835C445.456,618.835 445.242,618.812 445.032,618.768Z" style="fill:rgb(230,230,230);fill-rule:nonzero;"/>
    </g>
    <g transform="matrix(7.69557,0,0,7.69557,-1533.82,-336.309)">
        <path d="M440.899,638.201L323.099,613.146C321.683,612.847 320.66,611.587 320.66,610.14C320.66,608.454 322.047,607.067 323.732,607.067C323.949,607.067 324.165,607.09 324.377,607.136L442.177,632.191C443.588,632.493 444.605,633.751 444.605,635.195C444.605,636.88 443.218,638.267 441.533,638.267C441.32,638.267 441.107,638.245 440.899,638.201Z" style="fill:rgb(230,230,230);fill-rule:nonzero;"/>
    </g>
    <g transform="matrix(7.69557,0,0,7.69557,-1533.82,-336.309)">
        <path d="M436.766,657.634L318.965,632.579C317.549,632.28 316.527,631.02 316.527,629.573C316.527,627.887 317.914,626.5 319.599,626.5C319.816,626.5 320.032,626.523 320.244,626.569L438.044,651.624C439.46,651.922 440.482,653.183 440.482,654.63C440.482,656.315 439.096,657.702 437.41,657.702C437.193,657.702 436.977,657.679 436.766,657.634Z" style="fill:rgb(230,230,230);fill-rule:nonzero;"/>
    </g>
    <g transform="matrix(7.69557,0,0,7.69557,-1533.82,-336.309)">
        <path d="M432.632,677.067L314.832,652.012C313.421,651.709 312.404,650.451 312.404,649.008C312.404,647.322 313.791,645.936 315.477,645.936C315.69,645.936 315.902,645.958 316.111,646.002L433.911,671.057C435.327,671.355 436.349,672.616 436.349,674.063C436.349,675.748 434.962,677.135 433.277,677.135C433.06,677.135 432.844,677.112 432.632,677.067Z" style="fill:rgb(230,230,230);fill-rule:nonzero;"/>
    </g>
    <g transform="matrix(7.69557,0,0,7.69557,167.036,836.902)">
        <circle cx="137.976" cy="354.936" r="16.181" style="fill:rgb(230,230,230);"/>
    </g>
    <g transform="matrix(7.69557,0,0,7.69557,-1533.82,-336.309)">
        <path d="M696.852,466.869C699.137,468.84 702.056,469.925 705.074,469.925C709.671,469.925 713.917,467.405 716.12,463.37L729.393,439.052L719.355,430.731L697.474,447.309C694.336,449.686 692.489,453.403 692.489,457.34C692.489,460.998 694.083,464.48 696.852,466.869Z" style="fill:rgb(255,185,185);fill-rule:nonzero;"/>
    </g>
    <g transform="matrix(7.69557,0,0,7.69557,-1533.82,-336.309)">
        <path d="M712.393,432.961L727.893,445.461L812.393,379.961L807.393,265.961C797.798,273.637 791.664,284.844 790.371,297.064L775.893,361.461L712.393,432.961Z" style="fill:rgb(38,87,135);fill-rule:nonzero;"/>
    </g>
    <g transform="matrix(7.69557,0,0,7.69557,167.036,836.902)">
        <path d="M654.375,545.508L675.375,545.508L677.375,361.508L635.375,361.508L654.375,545.508Z" style="fill:rgb(255,185,185);fill-rule:nonzero;"/>
    </g>
    <g transform="matrix(7.69557,0,0,7.69557,167.036,836.902)">
        <path d="M602.375,555.508L623.375,555.508L625.375,359.508L583.375,357.508L602.375,555.508Z" style="fill:rgb(255,185,185);fill-rule:nonzero;"/>
    </g>
    <g transform="matrix(7.69557,0,0,7.69557,-1533.82,-336.309)">
        <path d="M796.393,529.961L848.393,531.961L850.393,520.961L853.393,535.961L901.393,533.961C901.385,485.326 900.347,431.584 906.393,412.961L795.393,423.961C786.651,461.643 785.574,497.342 796.393,529.961Z" style="fill:rgb(47,46,65);fill-rule:nonzero;"/>
    </g>
    <g transform="matrix(7.69557,0,0,7.69557,-1533.82,-336.309)">
        <path d="M887.486,745.961C898.711,745.961 907.511,750.32 906.489,739.141L903.582,701.343C903.467,698.078 901.426,695.175 898.393,693.961C890.393,684.583 882.393,683.583 874.393,690.961C871.792,694.212 870.275,698.198 870.057,702.356L868.429,739.895C867.866,750.806 876.561,745.961 887.486,745.961Z" style="fill:rgb(47,46,65);fill-rule:nonzero;"/>
    </g>
    <g transform="matrix(7.69557,0,0,7.69557,-1533.82,-336.309)">
        <path d="M784.977,746.491L838.349,745.079C842.902,744.446 846.286,740.438 846.147,735.843L847.153,709.762C847.286,707.107 845.251,704.797 842.6,704.593L834.393,703.961C833.42,695.031 827.983,692.865 820.393,693.961L796.393,720.961L780.578,725.39C775.356,726.852 772.004,732.031 772.808,737.394C773.681,743.211 779.151,747.3 784.977,746.491Z" style="fill:rgb(47,46,65);fill-rule:nonzero;"/>
    </g>
    <g transform="matrix(7.69557,0,0,7.69557,167.036,836.902)">
        <circle cx="625.375" cy="44.508" r="31" style="fill:rgb(255,185,185);"/>
    </g>
    <g transform="matrix(7.69557,0,0,7.69557,-1533.82,-336.309)">
        <path d="M830.393,251.961L883.393,236.961C871.54,232.35 866.964,224.307 869.393,212.961L834.393,212.961C838.893,230.054 838.911,244.002 830.393,251.961Z" style="fill:rgb(255,185,185);fill-rule:nonzero;"/>
    </g>
    <g transform="matrix(7.69557,0,0,7.69557,-1533.82,-336.309)">
        <path d="M792.393,436.961C822.304,440.784 849.862,429.203 875.893,420.461C887.645,416.515 899.484,420.635 910.393,413.961C905.676,367.494 910.256,315.153 920.277,259.375C921.454,252.874 917.585,246.438 911.291,244.429L878.393,233.961L849.393,243.961L834.393,246.961L803.505,267.831C799.83,270.314 797.943,274.741 798.698,279.112C807.977,331.567 805.826,385.413 792.393,436.961Z" style="fill:rgb(38,87,135);fill-rule:nonzero;"/>
    </g>
    <g transform="matrix(7.69557,0,0,7.69557,167.036,836.902)">
        <path d="M655.375,268.508L665.375,294.508L675.375,279.508L662.375,266.508L655.375,268.508Z" style="fill:rgb(255,185,185);fill-rule:nonzero;"/>
    </g>
    <g transform="matrix(7.69557,0,0,7.69557,-1533.82,-336.309)">
        <path d="M816.646,185.908C828.699,178.172 840.719,175.624 852.708,177.8C865.477,180.183 874.822,191.434 874.822,204.423C874.822,206.699 874.535,208.966 873.968,211.171C873.943,211.267 873.918,211.364 873.893,211.461L875.685,208.094C880.437,199.165 882.059,188.895 880.291,178.936C877.496,163.19 863.335,151.815 847.357,152.481L840.611,152.762C824.642,153.427 811.442,165.84 809.797,181.739C809.782,181.888 809.774,182.037 809.774,182.187C809.774,184.624 811.78,186.63 814.217,186.63C815.08,186.63 815.923,186.379 816.646,185.908Z" style="fill:rgb(47,46,65);fill-rule:nonzero;"/>
    </g>
    <g transform="matrix(7.69557,0,0,7.69557,-1533.82,-336.309)">
        <path d="M881.393,418.961L895.393,436.961L944.393,363.961L940.155,289.798C939.059,270.619 928.186,253.29 911.393,243.961L912.393,357.961L881.393,418.961Z" style="fill:rgb(38,87,135);fill-rule:nonzero;"/>
    </g>
    <g transform="matrix(7.69557,0,0,7.69557,-1533.82,-336.309)">
        <path d="M565.312,354.404C564.363,353.803 563.088,354.089 562.485,355.037L445.121,540.121C444.52,541.071 444.806,542.345 445.754,542.948L594.859,637.498C595.808,638.098 597.083,637.813 597.686,636.865L715.05,451.78C715.651,450.831 715.365,449.556 714.417,448.953L565.312,354.404Z" style="fill:rgb(38,87,135);fill-rule:nonzero;"/>
    </g>
    <g transform="matrix(7.69557,0,0,7.69557,-1533.82,-336.309)">
        <path d="M567.337,363.449C566.388,362.849 565.113,363.134 564.51,364.082L454.166,538.096C453.565,539.045 453.851,540.32 454.799,540.923L592.834,628.452C593.783,629.053 595.058,628.767 595.66,627.82L706.005,453.805C706.605,452.856 706.32,451.581 705.372,450.979L567.337,363.449Z" style="fill:white;fill-rule:nonzero;"/>
    </g>
    <g transform="matrix(7.69557,0,0,7.69557,-1533.82,-336.309)">
        <path d="M639.469,514.75L537.759,450.254C536.871,449.691 536.332,448.71 536.332,447.659C536.332,445.974 537.718,444.587 539.404,444.587C539.986,444.587 540.557,444.753 541.049,445.065L642.759,509.56C643.647,510.123 644.186,511.104 644.186,512.155C644.186,513.84 642.799,515.227 641.114,515.227C640.531,515.227 639.961,515.062 639.469,514.75Z" style="fill:rgb(38,87,135);fill-rule:nonzero;"/>
    </g>
    <g transform="matrix(7.69557,0,0,7.69557,-1533.82,-336.309)">
        <path d="M670.999,466.957L603.522,424.168C602.571,423.565 602.537,421.915 603.446,420.482C604.354,419.049 605.862,418.376 606.812,418.979L674.29,461.767C675.241,462.37 675.275,464.02 674.366,465.453C673.457,466.886 671.95,467.559 670.999,466.957Z" style="fill:rgb(38,87,135);fill-rule:nonzero;"/>
    </g>
    <g transform="matrix(7.69557,0,0,7.69557,-1533.82,-336.309)">
        <path d="M661.566,481.832L594.089,439.044C593.138,438.441 593.104,436.791 594.013,435.358C594.921,433.925 596.429,433.252 597.379,433.855L664.857,476.643C665.808,477.246 665.842,478.896 664.933,480.329C664.024,481.762 662.517,482.435 661.566,481.832Z" style="fill:rgb(38,87,135);fill-rule:nonzero;"/>
    </g>
    <g transform="matrix(7.69557,0,0,7.69557,-1533.82,-336.309)">
        <path d="M628.829,531.528L527.119,467.033C526.233,466.469 525.695,465.49 525.695,464.44C525.695,462.755 527.082,461.368 528.768,461.368C529.349,461.368 529.918,461.533 530.41,461.843L632.12,526.339C633.007,526.902 633.547,527.883 633.547,528.934C633.547,530.619 632.16,532.006 630.474,532.006C629.892,532.006 629.321,531.84 628.829,531.528L628.829,531.528Z" style="fill:rgb(38,87,135);fill-rule:nonzero;"/>
    </g>
    <g transform="matrix(7.69557,0,0,7.69557,-1533.82,-336.309)">
        <path d="M618.189,548.307L516.479,483.811C515.594,483.248 515.056,482.269 515.056,481.219C515.056,479.534 516.443,478.147 518.128,478.147C518.709,478.147 519.279,478.312 519.77,478.622L621.48,543.118C622.37,543.68 622.91,544.662 622.91,545.715C622.91,547.4 621.524,548.787 619.838,548.787C619.254,548.787 618.682,548.62 618.189,548.307L618.189,548.307Z" style="fill:rgb(38,87,135);fill-rule:nonzero;"/>
    </g>
    <g transform="matrix(7.69557,0,0,7.69557,-1533.82,-336.309)">
        <path d="M607.55,565.086L505.84,500.59C504.95,500.028 504.409,499.046 504.409,497.993C504.409,496.308 505.796,494.921 507.482,494.921C508.066,494.921 508.638,495.087 509.13,495.401L610.84,559.896C611.726,560.46 612.264,561.439 612.264,562.489C612.264,564.174 610.877,565.561 609.192,565.561C608.61,565.561 608.041,565.396 607.55,565.086Z" style="fill:rgb(38,87,135);fill-rule:nonzero;"/>
    </g>
    <g transform="matrix(7.69557,0,0,7.69557,-1533.82,-336.309)">
        <path d="M596.91,581.864L495.2,517.369C494.313,516.806 493.773,515.825 493.773,514.774C493.773,513.089 495.16,511.702 496.845,511.702C497.428,511.702 497.999,511.868 498.491,512.179L600.201,576.675C601.087,577.238 601.624,578.218 601.624,579.268C601.624,580.953 600.238,582.34 598.552,582.34C597.971,582.34 597.401,582.175 596.91,581.864Z" style="fill:rgb(38,87,135);fill-rule:nonzero;"/>
    </g>
    <g transform="matrix(7.69557,0,0,7.69557,-1533.82,-336.309)">
        <path d="M586.271,598.643L484.561,534.147C483.673,533.585 483.134,532.604 483.134,531.553C483.134,529.867 484.52,528.481 486.206,528.481C486.788,528.481 487.359,528.646 487.851,528.958L589.561,593.454C590.449,594.017 590.988,594.997 590.988,596.049C590.988,597.734 589.601,599.121 587.916,599.121C587.333,599.121 586.763,598.955 586.271,598.643Z" style="fill:rgb(38,87,135);fill-rule:nonzero;"/>
    </g>
    <g transform="matrix(7.69557,0,0,7.69557,167.036,836.902)">
        <circle cx="355.288" cy="261.491" r="16.181" style="fill:rgb(38,87,135);"/>
    </g>
    <g transform="matrix(7.69557,0,0,7.69557,-1533.82,-336.309)">
        <path d="M258.499,518.175C258.499,518.175 258.499,518.175 258.499,518.175C256.912,518.175 255.607,519.481 255.607,521.067C255.607,521.175 255.613,521.283 255.625,521.391L280.696,743.893C280.859,745.349 282.105,746.462 283.57,746.461L659.342,746.461C660.808,746.463 662.053,745.349 662.216,743.893L687.287,521.391C687.379,520.573 687.118,519.754 686.57,519.14C686.024,518.523 685.237,518.171 684.414,518.175L258.499,518.175Z" style="fill:rgb(230,230,230);fill-rule:nonzero;"/>
    </g>
    <g transform="matrix(7.69557,0,0,7.69557,-1533.82,-336.309)">
        <path d="M292.685,555.545L413.119,554.893C414.796,554.88 416.169,553.497 416.169,551.82C416.169,550.135 414.782,548.748 413.096,548.748C413.093,548.748 413.089,548.748 413.085,548.748L292.652,549.4C290.973,549.409 289.596,550.793 289.596,552.472C289.596,554.158 290.983,555.545 292.669,555.545C292.674,555.545 292.68,555.545 292.685,555.545Z" style="fill:white;fill-rule:nonzero;"/>
    </g>
    <g transform="matrix(7.69557,0,0,7.69557,-1533.82,-336.309)">
        <path d="M292.685,574.545L364.119,573.893C365.796,573.88 367.169,572.497 367.169,570.82C367.169,569.135 365.782,567.748 364.096,567.748C364.093,567.748 364.089,567.748 364.085,567.748L292.652,568.4C290.973,568.409 289.596,569.793 289.596,571.472C289.596,573.158 290.983,574.545 292.669,574.545C292.674,574.545 292.68,574.545 292.685,574.545Z" style="fill:white;fill-rule:nonzero;"/>
    </g>
    <g transform="matrix(7.69557,0,0,7.69557,167.036,836.902)">
        <path d="M757.569,595.094L0,595.094L0,592.913L757.964,592.913L757.569,595.094Z" style="fill:rgb(63,61,86);fill-rule:nonzero;"/>
    </g>
</svg>
